# This file uses centimeters as units for non-parametric coordinates.

mtllib BrickWall.mtl
g default
v -5.000000 -1.250000 0.250000
v 5.000000 -1.250000 0.250000
v -5.000000 1.250000 0.250000
v 5.000000 1.250000 0.250000
v -5.000000 1.250000 -0.250000
v 5.000000 1.250000 -0.250000
v -5.000000 -1.250000 -0.250000
v 5.000000 -1.250000 -0.250000
vt 0.190042 0.058445
vt 1.151580 0.058445
vt 1.151580 0.298830
vt 0.190042 0.298830
vt -0.273420 0.318068
vt 0.688119 0.318068
vt 0.688119 0.366145
vt -0.273420 0.366145
vt 0.102885 0.443666
vt 1.064424 0.443666
vt 1.064424 0.684051
vt 0.102885 0.684050
vt -0.557920 0.698639
vt 0.403619 0.698639
vt 0.403619 0.746716
vt -0.557920 0.746716
vt 0.249276 0.756315
vt 0.297352 0.756315
vt 0.297352 0.996700
vt 0.249276 0.996700
vt 0.439469 0.757099
vt 0.487546 0.757099
vt 0.487546 0.997484
vt 0.439469 0.997484
vn 0.000000 -0.000000 1.000000
vn 0.000000 -0.000000 1.000000
vn 0.000000 -0.000000 1.000000
vn 0.000000 -0.000000 1.000000
vn 0.000000 1.000000 0.000000
vn 0.000000 1.000000 0.000000
vn 0.000000 1.000000 0.000000
vn 0.000000 1.000000 0.000000
vn 0.000000 0.000000 -1.000000
vn 0.000000 0.000000 -1.000000
vn 0.000000 0.000000 -1.000000
vn 0.000000 0.000000 -1.000000
vn 0.000000 -1.000000 0.000000
vn 0.000000 -1.000000 0.000000
vn 0.000000 -1.000000 0.000000
vn 0.000000 -1.000000 0.000000
vn 1.000000 0.000000 0.000000
vn 1.000000 0.000000 0.000000
vn 1.000000 0.000000 0.000000
vn 1.000000 0.000000 0.000000
vn -1.000000 0.000000 0.000000
vn -1.000000 0.000000 0.000000
vn -1.000000 0.000000 0.000000
vn -1.000000 0.000000 0.000000
s off
g pCube1
usemtl lambert2SG
f 1/1/1 2/2/2 4/3/3 3/4/4
f 3/5/5 4/6/6 6/7/7 5/8/8
f 5/9/9 6/10/10 8/11/11 7/12/12
f 7/13/13 8/14/14 2/15/15 1/16/16
f 2/17/17 8/18/18 6/19/19 4/20/20
f 7/21/21 1/22/22 3/23/23 5/24/24
